# xmcd CD database file
#
# Track frame offsets:
#	150
#	7047
#	20343
#	29734
#	48528
#	64868
#	83703
#	106850
#	131671
#	143966
#	154376
#	167726
#	183064
#	188032
#	205324
#	226633
#	242779
#	266104
#	287194
#	291391
#
# Disc length: 4007 seconds
#
# Revision: 1
# Processed by: cddbd v1.5.2PL0 Copyright (c) Steve Scherf et al.
# Submitted via: CDex 1.70beta2
#
DISCID=260fa514
DTITLE=Marilyn Monroe - The very best of Marilyn Monroe CD2
DYEAR=2000
DGENRE=Evergreen
TTITLE0=Anyone can see I love you
TTITLE1=Every baby needs a da-da-daddy
TTITLE2=Kiss
TTITLE3=Two little girls from little rock
TTITLE4=After you get what you want, you don't want it
TTITLE5=Heat wave
TTITLE6=A man chases a girl
TTITLE7=Lazy
TTITLE8=I'm gonna file my claim
TTITLE9=The river of no return
TTITLE10=Down in the meadow
TTITLE11=That old black magic
TTITLE12=I found a dream
TTITLE13=Let's make love
TTITLE14=Incurably romantic
TTITLE15=Specialization
TTITLE16=My heart belongs to daddy
TTITLE17=Bye bye baby
TTITLE18=Diamonds are a girl's best friends
TTITLE19=Happy birthday - Thanks for the memory
EXTD=YEAR: 2000
EXTT0=
EXTT1=
EXTT2=
EXTT3=
EXTT4=
EXTT5=
EXTT6=
EXTT7=
EXTT8=
EXTT9=
EXTT10=
EXTT11=
EXTT12=
EXTT13=
EXTT14=
EXTT15=
EXTT16=
EXTT17=
EXTT18=
EXTT19=
PLAYORDER=
